#!OML:ASF F:\VICON\USERDATA\INSTALL\rory3\rory3.ASF
:FULLY-SPECIFIED
:DEGREES
2909
root -2.8039 17.6964 1.28848 3.22824 1.78259 0.702162
lowerback 3.13081 -0.223861 -3.67972
upperback 1.9103 -0.389483 1.59017
thorax 0.244562 -0.233817 3.71346
lowerneck -19.2009 0.765373 -10.0789
upperneck 21.6982 3.37523 3.11875
head 9.86062 1.09352 3.23335
rclavicle -5.11871e-015 3.57812e-015
rhumerus -1.51743 -44.4729 1.46701
rradius 39.7543
rwrist 32.8496
rhand -22.8893 -8.55935
rfingers 7.12502
rthumb 3.54998 -38.5095
lclavicle -5.11871e-015 3.57812e-015
lhumerus 4.76908 43.3073 -2.2875
lradius 33.1471
lwrist -17.6521
lhand -22.1508 28.7657
lfingers 7.12502
lthumb 4.26313 58.7028
rfemur -13.4441 1.34885 12.5455
rtibia 32.0812
rfoot -20.2836 -6.40044
rtoes 9.06732
lfemur -10.9805 -2.64513 -16.888
ltibia 27.8923
lfoot -15.6673 5.8015
ltoes -20.2373
2910
root -2.80283 17.6983 1.27133 3.17546 1.66038 0.60468
lowerback 3.11116 -0.211783 -3.58671
upperback 1.83814 -0.370874 1.62077
thorax 0.178995 -0.221255 3.69216
lowerneck -19.3742 0.703438 -10.256
upperneck 21.9009 3.32094 3.30745
head 9.96179 1.0687 3.33124
rclavicle 1.68967e-015 -1.03368e-014
rhumerus 1.50126 -44.5244 -0.558611
rradius 39.5341
rwrist 33.1256
rhand -23.0283 -8.12215
rfingers 7.12502
rthumb 3.41582 -38.0745
lclavicle 1.68967e-015 -1.03368e-014
lhumerus 7.3708 42.8872 -0.419904
lradius 33.1092
lwrist -17.6039
lhand -22.6071 28.956
lfingers 7.12502
lthumb 3.82248 58.9014
rfemur -13.4808 1.42285 12.649
rtibia 32.0403
rfoot -20.1572 -6.45626
rtoes 8.79775
lfemur -10.9729 -2.7005 -16.796
ltibia 27.9294
lfoot -15.6164 5.95928
ltoes -20.0624
2911
root -2.80091 17.701 1.25595 3.14252 1.54443 0.6346
lowerback 3.08158 -0.213097 -3.62621
upperback 1.76137 -0.373245 1.62163
thorax 0.117136 -0.220094 3.71552
lowerneck -19.4458 0.700876 -10.2635
upperneck 21.9053 3.33524 3.28028
head 9.97639 1.07107 3.32614
rclavicle -5.56597e-015 -5.96354e-015
rhumerus 4.50595 -44.4668 -2.68182
rradius 39.3847
rwrist 33.2684
rhand -22.9241 -7.67395
rfingers 7.12502
rthumb 3.51641 -37.6247
lclavicle -5.56597e-015 -5.96354e-015
lhumerus 9.61101 42.0447 1.16362
lradius 33.1828
lwrist -17.3915
lhand -22.4736 28.6969
lfingers 7.12502
lthumb 3.95146 58.64
rfemur -13.5298 1.42408 12.6
rtibia 32.0194
rfoot -20.0113 -6.46111
rtoes 8.64635
lfemur -10.9714 -2.71521 -16.8505
ltibia 27.9417
lfoot -15.6015 6.07685
ltoes -19.9476
2912
root -2.79925 17.7018 1.24087 3.12353 1.43581 0.642849
lowerback 2.96301 -0.214916 -3.61185
upperback 1.72371 -0.371793 1.58979
thorax 0.144204 -0.219052 3.67373
lowerneck -19.4153 0.722849 -10.0685
upperneck 21.7436 3.35242 3.0661
head 9.92019 1.07526 3.21528
rclavicle 2.6339e-015 4.77083e-015
rhumerus 7.46615 -44.3756 -4.95549
rradius 39.2246
rwrist 33.4331
rhand -22.9543 -7.69731
rfingers 7.12502
rthumb 3.48719 -37.6485
lclavicle 2.6339e-015 4.77083e-015
lhumerus 12.0334 41.5829 2.9567
lradius 33.1111
lwrist -17.8318
lhand -21.5118 27.1278
lfingers 7.12502
lthumb 4.88021 57.0516
rfemur -13.5822 1.54645 12.5715
rtibia 32.0078
rfoot -19.9948 -6.41507
rtoes 9.19541
lfemur -10.9759 -2.71621 -16.8789
ltibia 27.9413
lfoot -15.5814 6.18825
ltoes -20.0336
2913
root -2.79843 17.703 1.22456 3.09113 1.33919 0.635239
lowerback 2.87821 -0.247935 -3.59249
upperback 1.64426 -0.413212 1.57091
thorax 0.113342 -0.237546 3.64403
lowerneck -19.3682 0.784921 -9.93799
upperneck 21.7335 3.42674 2.93153
head 9.90789 1.10452 3.15483
rclavicle 7.10655e-015 4.37326e-015
rhumerus 10.4801 -44.1677 -7.40705
rradius 39.042
rwrist 33.7122
rhand -23.1422 -7.73946
rfingers 7.12502
rthumb 3.30578 -37.6936
lclavicle 7.10655e-015 4.37326e-015
lhumerus 14.3041 41.1404 4.72452
lradius 33.0095
lwrist -18.6373
lhand -20.5871 25.9595
lfingers 7.12502
lthumb 5.77303 55.8609
rfemur -13.6362 1.65228 12.5725
rtibia 32.0242
rfoot -19.9939 -6.42045
rtoes 9.36952
lfemur -10.9759 -2.70277 -16.8766
ltibia 27.9126
lfoot -15.4925 6.25865
ltoes -20.0518
2914
root -2.79712 17.7038 1.20906 3.0697 1.29723 0.662639
lowerback 2.83774 -0.295259 -3.58775
upperback 1.56356 -0.475538 1.54484
thorax 0.0582934 -0.266051 3.61602
lowerneck -19.6069 0.801631 -9.91373
upperneck 21.9535 3.47363 2.93985
head 10.0277 1.12038 3.17059
rclavicle 4.17448e-015 -1.27222e-014
rhumerus 13.2092 -43.6336 -9.6016
rradius 38.8636
rwrist 33.6407
rhand -23.3487 -7.65061
rfingers 7.12502
rthumb 3.10632 -37.6077
lclavicle 4.17448e-015 -1.27222e-014
lhumerus 16.3054 40.3347 6.27011
lradius 32.935
lwrist -19.0309
lhand -20.3043 25.7489
lfingers 7.12502
lthumb 6.04603 55.6427
rfemur -13.7043 1.58525 12.5411
rtibia 32.0648
rfoot -19.8678 -6.40796
rtoes 9.0608
lfemur -10.9979 -2.69966 -16.9075
ltibia 27.8663
lfoot -15.39 6.26718
ltoes -20.0872
2915
root -2.79403 17.7035 1.19626 3.05167 1.23957 0.789779
lowerback 2.7053 -0.324141 -3.65964
upperback 1.57915 -0.511296 1.50106
thorax 0.15199 -0.2865 3.61104
lowerneck -19.9956 0.782669 -10.0069
upperneck 22.038 3.50351 3.02017
head 10.1245 1.13217 3.22816
rclavicle 5.06901e-015 -7.15625e-015
rhumerus 15.7448 -43.058 -11.613
rradius 38.6847
rwrist 33.5247
rhand -23.456 -7.64636
rfingers 7.12502
rthumb 3.00269 -37.605
lclavicle 5.06901e-015 -7.15625e-015
lhumerus 18.2374 39.5112 7.80519
lradius 32.8124
lwrist -19.1158
lhand -20.3043 25.5981
lfingers 7.12502
lthumb 6.04601 55.4918
rfemur -13.7647 1.52828 12.3758
rtibia 32.1067
rfoot -19.757 -6.38528
rtoes 8.76893
lfemur -10.9713 -2.72999 -17.0665
ltibia 27.8141
lfoot -15.3455 6.32433
ltoes -20.0776
